<svg  width="44" height="44" viewBox="0 0 44 44" fill="none" xmlns="http://www.w3.org/2000/svg">
<rect  x="0.5" y="43.5" width="43" height="43" rx="21.5" transform="rotate(-90 0.5 43.5)" fill="white"/>
<path d="M20.7079 12.7786C20.8009 12.8668 20.8747 12.9716 20.925 13.0869C20.9753 13.2022 21.0012 13.3258 21.0012 13.4507C21.0012 13.5755 20.9753 13.6991 20.925 13.8145C20.8747 13.9298 20.8009 14.0345 20.7079 14.1228L13.4144 21.0502L33 21.0502C33.2652 21.0502 33.5196 21.1503 33.7071 21.3284C33.8946 21.5065 34 21.7482 34 22.0001C34 22.252 33.8946 22.4937 33.7071 22.6718C33.5196 22.85 33.2652 22.95 33 22.95L13.4144 22.95L20.7079 29.8775C20.8956 30.0557 21.001 30.2975 21.001 30.5495C21.001 30.8016 20.8956 31.0434 20.7079 31.2216C20.5203 31.3999 20.2658 31.5 20.0005 31.5C19.7351 31.5 19.4806 31.3999 19.293 31.2216L10.2933 22.6722C10.2003 22.584 10.1265 22.4792 10.0762 22.3639C10.0259 22.2486 10 22.1249 10 22.0001C10 21.8753 10.0259 21.7517 10.0762 21.6363C10.1265 21.521 10.2003 21.4163 10.2933 21.328L19.293 12.7786C19.3859 12.6903 19.4961 12.6202 19.6175 12.5724C19.7389 12.5246 19.869 12.5 20.0005 12.5C20.1319 12.5 20.262 12.5246 20.3834 12.5724C20.5048 12.6202 20.6151 12.6903 20.7079 12.7786Z" fill="#D9D9D9"/>
<rect x="0.5" y="43.5" width="43" height="43" rx="21.5" transform="rotate(-90 0.5 43.5)" stroke="#D9D9D9"/>
</svg>
