<svg width="24" height="20" viewBox="0 0 24 20" fill="none" xmlns="http://www.w3.org/2000/svg">
<path d="M10.7079 0.778602C10.8009 0.866827 10.8747 0.971595 10.925 1.08692C10.9753 1.20224 11.0012 1.32585 11.0012 1.45068C11.0012 1.57552 10.9753 1.69913 10.925 1.81445C10.8747 1.92977 10.8009 2.03454 10.7079 2.12276L3.41442 9.05017L23 9.05017C23.2652 9.05017 23.5196 9.15025 23.7071 9.3284C23.8946 9.50655 24 9.74817 24 10.0001C24 10.252 23.8946 10.4937 23.7071 10.6718C23.5196 10.85 23.2652 10.95 23 10.95L3.41442 10.95L10.7079 17.8775C10.8956 18.0557 11.001 18.2975 11.001 18.5495C11.001 18.8016 10.8956 19.0434 10.7079 19.2216C10.5203 19.3999 10.2658 19.5 10.0005 19.5C9.7351 19.5 9.48062 19.3999 9.29298 19.2216L0.293277 10.6722C0.200303 10.584 0.126547 10.4792 0.0762241 10.3639C0.0259014 10.2486 -4.09797e-07 10.1249 -4.15253e-07 10.0001C-4.2071e-07 9.87527 0.0259014 9.75166 0.076224 9.63634C0.126547 9.52102 0.200303 9.41625 0.293277 9.32803L9.29298 0.778602C9.38585 0.690281 9.49614 0.620214 9.61753 0.572408C9.73893 0.524604 9.86905 0.5 10.0005 0.5C10.1319 0.5 10.262 0.524604 10.3834 0.572408C10.5048 0.620214 10.6151 0.69028 10.7079 0.778602Z" fill="#D9D9D9"/>
</svg>
