<?xml version="1.0" encoding="UTF-8"?>
<svg xmlns="http://www.w3.org/2000/svg" xmlns:xlink="http://www.w3.org/1999/xlink" width="0" height="0">
<symbol id="back"  width="44" height="44" viewBox="0 0 44 44" fill="none">
<rect class='a'  x="0.5" y="43.5" width="43" height="43" rx="21.5" transform="rotate(-90 0.5 43.5)"/>
<path class='b' d="M20.7079 12.7786C20.8009 12.8668 20.8747 12.9716 20.925 13.0869C20.9753 
13.2022 21.0012 13.3258 21.0012 13.4507C21.0012 13.5755 20.9753 13.6991 20.925
 13.8145C20.8747 13.9298 20.8009 14.0345 20.7079 14.1228L13.4144 21.0502L33 
 21.0502C33.2652 21.0502 33.5196 21.1503 33.7071 21.3284C33.8946 21.5065 34 
 21.7482 34 22.0001C34 22.252 33.8946 22.4937 33.7071 22.6718C33.5196 22.85 
 33.2652 22.95 33 22.95L13.4144 22.95L20.7079 29.8775C20.8956 30.0557 21.001 
 30.2975 21.001 30.5495C21.001 30.8016 20.8956 31.0434 20.7079 31.2216C20.5203
  31.3999 20.2658 31.5 20.0005 31.5C19.7351 31.5 19.4806 31.3999 19.293
   31.2216L10.2933 22.6722C10.2003 22.584 10.1265 22.4792 10.0762 
   22.3639C10.0259 22.2486 10 22.1249 10 22.0001C10 21.8753 10.0259 
   21.7517 10.0762 21.6363C10.1265 21.521 10.2003 21.4163 10.2933
    21.328L19.293 12.7786C19.3859 12.6903 19.4961 12.6202 19.6175
     12.5724C19.7389 12.5246 19.869 12.5 20.0005 12.5C20.1319 12.5 
     20.262 12.5246 20.3834 12.5724C20.5048 12.6202 20.6151 12.6903
      20.7079 12.7786Z" />
      <rect class='c' x="0.5" y="43.5" width="43" height="43" rx="21.5" transform="rotate(-90 0.5 43.5)"/></symbol>
<!-- <symbol id="Ic_return_Passive" width="24" height="20" viewBox="0 0 24 20">
<path d="M10.7079 0.778602C10.8009 0.866827 10.8747 0.971595 10.925 1.08692C10.9753
 1.20224 11.0012 1.32585 11.0012 1.45068C11.0012 1.57552 10.9753 1.69913 10.925 1.81445C10.8747 
 1.92977 10.8009 2.03454 10.7079 2.12276L3.41442 9.05017L23 9.05017C23.2652 9.05017 23.5196
  9.15025 23.7071 9.3284C23.8946 9.50655 24 9.74817 24 10.0001C24 10.252 23.8946 10.4937
   23.7071 10.6718C23.5196 10.85 23.2652 10.95 23 10.95L3.41442 10.95L10.7079
    17.8775C10.8956 18.0557 11.001 18.2975 11.001 18.5495C11.001 18.8016 10.8956 
    19.0434 10.7079 19.2216C10.5203 19.3999 10.2658 19.5 10.0005 19.5C9.7351 19.5
     9.48062 19.3999 9.29298 19.2216L0.293277 10.6722C0.200303 10.584 0.126547
      10.4792 0.0762241 10.3639C0.0259014 10.2486 -4.09797e-07 10.1249
       -4.15253e-07 10.0001C-4.2071e-07 9.87527 0.0259014 9.75166 
       0.076224 9.63634C0.126547 9.52102 0.200303 9.41625 0.293277
        9.32803L9.29298 0.778602C9.38585 0.690281 9.49614 0.620214 
        9.61753 0.572408C9.73893 0.524604 9.86905 0.5 10.0005 0.5C10.1319 0.5 10.262 0.524604 10.3834 0.572408C10.5048 0.620214 
        10.6151 0.69028 10.7079 0.778602Z"/>
        </symbol> -->
        </svg>