<?xml version="1.0" encoding="UTF-8"?>
<svg xmlns="http://www.w3.org/2000/svg" xmlns:xlink="http://www.w3.org/1999/xlink" width="0" height="0">
<symbol id="plus" width="14" height="14" viewBox="0 0 14 14" fill="none">
<path d="M1 7H7H1ZM13 7H7H13ZM7 7V1V7ZM7 7V13V7Z" fill="white"/><path d="M1 7H7M7 7H13M7 7V1M7 7V13" stroke="white" stroke-width="1.5" stroke-linecap="round" stroke-linejoin="round"/></symbol>
<symbol id="edit" width="21" height="20" viewBox="0 0 21 20" ><g><path id="Ic_edit_Passive" d="M13.0002 5.00001L15.5002 7.50001M11.3335 16.6667H18.0002M4.66683 13.3333L3.8335 16.6667L7.16683 15.8333L16.8218 6.17835C17.1343 5.8658 17.3098 5.44195 17.3098 5.00001C17.3098 4.55807 17.1343 4.13423 16.8218 3.82168L16.6785 3.67835C16.366 3.36589 15.9421 3.19037 15.5002 3.19037C15.0582 3.19037 14.6344 3.36589 14.3218 3.67835L4.66683 13.3333Z" stroke-width="1.5" stroke-linecap="round" stroke-linejoin="round"/></g></symbol>
<symbol id="delete" width="21" height="20" viewBox="0 0 21 20"><g><path id="Ic_delete_Passive" d="M8.8335 4.37499V4.58332H12.1668V4.37499C12.1668 3.93296 11.9912 3.50904 11.6787 3.19648C11.3661 2.88392 10.9422 2.70832 10.5002 2.70832C10.0581 2.70832 9.63421 2.88392 9.32165 3.19648C9.00909 3.50904 8.8335 3.93296 8.8335 4.37499ZM7.79183 4.58332V4.37499C7.79183 3.6567 8.07717 2.96782 8.58508 2.45991C9.09299 1.952 9.78187 1.66666 10.5002 1.66666C11.2185 1.66666 11.9073 1.952 12.4152 2.45991C12.9232 2.96782 13.2085 3.6567 13.2085 4.37499V4.58332H17.896C18.0341 4.58332 18.1666 4.6382 18.2643 4.73587C18.362 4.83355 18.4168 4.96602 18.4168 5.10416C18.4168 5.24229 18.362 5.37477 18.2643 5.47244C18.1666 5.57012 18.0341 5.62499 17.896 5.62499H16.6806L15.8472 15.565C15.7839 16.3198 15.4393 17.0233 14.8818 17.5361C14.3242 18.0488 13.5943 18.3334 12.8368 18.3333H8.1635C7.40608 18.3333 6.67632 18.0487 6.11883 17.5359C5.56134 17.0232 5.21681 16.3198 5.1535 15.565L4.32016 5.62499H3.10433C2.9662 5.62499 2.83372 5.57012 2.73604 5.47244C2.63837 5.37477 2.5835 5.24229 2.5835 5.10416C2.5835 4.96602 2.63837 4.83355 2.73604 4.73587C2.83372 4.6382 2.9662 4.58332 3.10433 4.58332H7.79183ZM6.19141 15.4779C6.23289 15.9724 6.45862 16.4333 6.82387 16.7692C7.18913 17.1052 7.66725 17.2916 8.1635 17.2917H12.8368C13.3331 17.2917 13.8114 17.1053 14.1767 16.7694C14.5421 16.4334 14.7678 15.9725 14.8093 15.4779L15.6352 5.62499H5.36516L6.19141 15.4779ZM9.4585 8.43749C9.4585 8.36909 9.44502 8.30137 9.41885 8.23818C9.39268 8.17499 9.35431 8.11757 9.30595 8.0692C9.25758 8.02084 9.20017 7.98248 9.13698 7.9563C9.07379 7.93013 9.00606 7.91666 8.93766 7.91666C8.86927 7.91666 8.80154 7.93013 8.73835 7.9563C8.67516 7.98248 8.61774 8.02084 8.56938 8.0692C8.52101 8.11757 8.48265 8.17499 8.45648 8.23818C8.4303 8.30137 8.41683 8.36909 8.41683 8.43749V14.4792C8.41683 14.5476 8.4303 14.6153 8.45648 14.6785C8.48265 14.7417 8.52101 14.7991 8.56938 14.8474C8.61774 14.8958 8.67516 14.9342 8.73835 14.9603C8.80154 14.9865 8.86927 15 8.93766 15C9.00606 15 9.07379 14.9865 9.13698 14.9603C9.20017 14.9342 9.25758 14.8958 9.30595 14.8474C9.35431 14.7991 9.39268 14.7417 9.41885 14.6785C9.44502 14.6153 9.4585 14.5476 9.4585 14.4792V8.43749ZM12.0627 7.91666C12.3502 7.91666 12.5835 8.14999 12.5835 8.43749V14.4792C12.5835 14.6173 12.5286 14.7498 12.4309 14.8474C12.3333 14.9451 12.2008 15 12.0627 15C11.9245 15 11.7921 14.9451 11.6944 14.8474C11.5967 14.7498 11.5418 14.6173 11.5418 14.4792V8.43749C11.5418 8.14999 11.7752 7.91666 12.0627 7.91666Z" /></g></symbol>
</svg>