<svg width="1440" height="650" viewBox="0 0 1440 650" fill="none" xmlns="http://www.w3.org/2000/svg" preserveAspectRatio="none">
<path d="M91.4585 20.6725C51.2843 36.5735 0 70 0 70H745V0H189.316C151.453 7.51507e-05 125.589 7.16374 91.4585 20.6725Z" fill="#2E7B60"/>
<path d="M1359.07 20.6725C1396.81 36.5735 1445 70 1445 70H745V0H1267.12C1302.7 7.51507e-05 1327 7.16374 1359.07 20.6725Z" fill="#2E7B60"/>
<path d="M0 69H1441V581H0V69Z" fill="#2E7B60"/>
<path d="M91.4585 629.327C51.2843 613.427 0 580 0 580H745V650H189.316C151.453 650 125.589 642.836 91.4585 629.327Z" fill="#2E7B60"/>
<path d="M1359.07 629.327C1396.81 613.427 1445 580 1445 580H745V650H1267.12C1302.7 650 1327 642.836 1359.07 629.327Z" fill="#2E7B60"/>
</svg>
