<?xml version="1.0" encoding="UTF-8"?>
<svg xmlns="http://www.w3.org/2000/svg" xmlns:xlink="http://www.w3.org/1999/xlink" width="0" height="0">
<symbol id="🦆 ic_share" width="22" height="22" viewBox="0 0 22 22" fill="none">
<path d="M17.6667 21C19.5077 21 21 19.6569 21 18C21 16.3431 19.5077 15 17.6667 15C15.8257 15 14.3333 16.3431 14.3333 18C14.3333 19.6569 15.8257 21 17.6667 21Z"  stroke-linecap="round" stroke-linejoin="round"/>
<path d="M17.6667 7C19.5077 7 21 5.65685 21 4C21 2.34315 19.5077 1 17.6667 1C15.8257 1 14.3333 2.34315 14.3333 4C14.3333 5.65685 15.8257 7 17.6667 7Z" stroke-linecap="round" stroke-linejoin="round"/>
<path d="M4.33333 14C6.17428 14 7.66667 12.6569 7.66667 11C7.66667 9.3431 6.17428 8 4.33333 8C2.49239 8 1 9.3431 1 11C1 12.6569 2.49239 14 4.33333 14Z" stroke-linecap="round" stroke-linejoin="round"/>
<path d="M14.8889 5.5L7.11108 9.5" />
<path d="M7.11108 12.5L14.8889 16.5" />
</symbol>
<symbol id="copy" width="17" height="16" viewBox="0 0 17 16" fill="none"><path d="M15.4375 15.5H6.25C5.93934 15.5 5.6875 15.2482 5.6875 14.9375V5.75C5.6875 5.43934 5.93934 5.1875 6.25 5.1875H15.4375C15.7482 5.1875 16 5.43934 16 5.75V14.9375C16 15.2482 15.7482 15.5 15.4375 15.5Z"  stroke-linecap="round" stroke-linejoin="round"/><path d="M11.3125 5.1875V1.0625C11.3125 0.751841 11.0607 0.5 10.75 0.5H1.5625C1.25184 0.5 1 0.751841 1 1.0625V10.25C1 10.5607 1.25184 10.8125 1.5625 10.8125H5.6875" stroke-linecap="round" stroke-linejoin="round"/></symbol>
<symbol id="Ic_right_Passive" width="15" height="17" viewBox="0 0 15 17"><g><path id="Ic_right_Passive_2" d="M8.03912 13.5577C7.99422 13.5075 7.9586 13.4478 7.9343 13.3822C7.90999 13.3165 7.89748 13.2461 7.89748 13.175C7.89748 13.104 7.90999 13.0336 7.9343 12.9679C7.9586 12.9023 7.99422 12.8426 8.03912 12.7924L11.5616 8.84805L2.1026 8.84805C1.97452 8.84805 1.85168 8.79107 1.76111 8.68964C1.67054 8.5882 1.61966 8.45063 1.61966 8.30718C1.61966 8.16373 1.67054 8.02616 1.76111 7.92473C1.85168 7.82329 1.97452 7.76631 2.1026 7.76631L11.5616 7.76631L8.03912 3.82199C7.9485 3.7205 7.8976 3.58285 7.8976 3.43932C7.8976 3.2958 7.9485 3.15815 8.03912 3.05666C8.12974 2.95517 8.25265 2.89815 8.3808 2.89815C8.50896 2.89815 8.63186 2.95517 8.72248 3.05666L13.0689 7.92451C13.1138 7.97474 13.1495 8.0344 13.1738 8.10006C13.1981 8.16572 13.2106 8.2361 13.2106 8.30718C13.2106 8.37826 13.1981 8.44864 13.1738 8.5143C13.1495 8.57996 13.1138 8.63962 13.0689 8.68985L8.72248 13.5577C8.67763 13.608 8.62437 13.6479 8.56574 13.6751C8.50711 13.7023 8.44427 13.7163 8.3808 13.7163C8.31734 13.7163 8.25449 13.7023 8.19587 13.6751C8.13724 13.6479 8.08398 13.608 8.03912 13.5577Z" /></g></symbol>
</svg>
