<svg width="21" height="22" viewBox="0 0 21 22" fill="none" xmlns="http://www.w3.org/2000/svg">
<rect width="21" height="22" fill="#F5F5F5"/>
<g clip-path="url(#clip0_0_1)">
<rect width="1440" height="900" transform="translate(-709 -635)" fill="white"/>
<path d="M-617.542 -23.3275C-657.716 -7.42654 -709 26 -709 26H36V-44H-519.684C-557.547 -43.9999 -583.411 -36.8363 -617.542 -23.3275Z" fill="#2E7B60"/>
<path d="M-29.4321 2V-9.28H-19.6241V2H-21.6721V-7.568H-27.3841V2H-29.4321ZM-17.2464 4.88V-5.824H-15.2944V-4.576C-15.0704 -5.00267 -14.7344 -5.344 -14.2864 -5.6C-13.8278 -5.856 -13.3104 -5.984 -12.7344 -5.984C-12.0518 -5.984 -11.4544 -5.81867 -10.9424 -5.488C-10.4198 -5.15733 -10.0144 -4.688 -9.72644 -4.08C-9.43844 -3.48267 -9.29444 -2.76267 -9.29444 -1.92C-9.29444 -1.088 -9.43844 -0.362667 -9.72644 0.256C-10.0144 0.864 -10.4144 1.33333 -10.9264 1.664C-11.4384 1.99467 -12.0411 2.16 -12.7344 2.16C-13.2891 2.16 -13.7904 2.04267 -14.2384 1.808C-14.6758 1.56267 -15.0118 1.23733 -15.2464 0.832V4.88H-17.2464ZM-13.2944 0.64C-12.6971 0.64 -12.2171 0.426667 -11.8544 0C-11.4918 -0.437333 -11.3104 -1.07733 -11.3104 -1.92C-11.3104 -2.77333 -11.4918 -3.408 -11.8544 -3.824C-12.2171 -4.25067 -12.6971 -4.464 -13.2944 -4.464C-13.8918 -4.464 -14.3718 -4.25067 -14.7344 -3.824C-15.0971 -3.408 -15.2784 -2.77333 -15.2784 -1.92C-15.2784 -1.07733 -15.0971 -0.437333 -14.7344 0C-14.3718 0.426667 -13.8918 0.64 -13.2944 0.64ZM-4.84231 2.16C-5.40765 2.16 -5.91431 2.05333 -6.36231 1.84C-6.79965 1.616 -7.14631 1.31733 -7.40231 0.944C-7.64765 0.570667 -7.77031 0.149333 -7.77031 -0.32C-7.77031 -0.896 -7.62098 -1.34933 -7.32231 -1.68C-7.02365 -2.02133 -6.53831 -2.26667 -5.86631 -2.416C-5.19431 -2.56533 -4.29298 -2.64 -3.16231 -2.64H-2.60231V-2.976C-2.60231 -3.50933 -2.71965 -3.89333 -2.95431 -4.128C-3.18898 -4.36267 -3.58365 -4.48 -4.13831 -4.48C-4.57565 -4.48 -5.02365 -4.41067 -5.48231 -4.272C-5.94098 -4.144 -6.40498 -3.94133 -6.87431 -3.664L-7.45031 -5.024C-7.17298 -5.216 -6.84765 -5.38133 -6.47431 -5.52C-6.09031 -5.66933 -5.69031 -5.78133 -5.27431 -5.856C-4.84765 -5.94133 -4.44765 -5.984 -4.07431 -5.984C-2.93298 -5.984 -2.08498 -5.71733 -1.53031 -5.184C-0.975646 -4.66133 -0.698312 -3.84533 -0.698312 -2.736V2H-2.57031V0.752C-2.75165 1.18933 -3.03965 1.536 -3.43431 1.792C-3.82898 2.03733 -4.29831 2.16 -4.84231 2.16ZM-4.42631 0.784C-3.90365 0.784 -3.47165 0.602667 -3.13031 0.24C-2.77831 -0.122667 -2.60231 -0.581333 -2.60231 -1.136V-1.488H-3.14631C-4.14898 -1.488 -4.84765 -1.408 -5.24231 -1.248C-5.62631 -1.09867 -5.81831 -0.821333 -5.81831 -0.416C-5.81831 -0.0640001 -5.69565 0.224 -5.45031 0.448C-5.20498 0.672 -4.86365 0.784 -4.42631 0.784ZM1.53444 2V-5.824H5.75844C6.77177 -5.824 7.4971 -5.64267 7.93444 -5.28C8.38244 -4.928 8.60644 -4.42667 8.60644 -3.776C8.60644 -3.37067 8.49444 -3.01867 8.27044 -2.72C8.04644 -2.42133 7.7371 -2.20267 7.34244 -2.064C7.85444 -1.94667 8.23844 -1.72267 8.49444 -1.392C8.75044 -1.06133 8.87844 -0.661333 8.87844 -0.192C8.87844 0.48 8.62244 1.01333 8.11044 1.408C7.59844 1.80267 6.8571 2 5.88644 2H1.53444ZM3.39044 -2.608H5.56644C5.95044 -2.608 6.2491 -2.69333 6.46244 -2.864C6.67577 -3.04533 6.78244 -3.296 6.78244 -3.616C6.78244 -3.936 6.67577 -4.176 6.46244 -4.336C6.2491 -4.50667 5.95044 -4.592 5.56644 -4.592H3.39044V-2.608ZM3.39044 0.768H5.71044C6.60644 0.768 7.05444 0.410667 7.05444 -0.304C7.05444 -1.01867 6.60644 -1.376 5.71044 -1.376H3.39044V0.768ZM10.6282 2V-5.824H12.4362V-0.608L16.3562 -5.824H18.0202V2H16.2122V-3.216L12.2922 2H10.6282ZM20.0764 2.224L19.4524 0.64C19.9004 0.48 20.2578 0.250667 20.5244 -0.0480001C20.7911 -0.357333 20.9778 -0.778667 21.0844 -1.312C21.2018 -1.856 21.2604 -2.55467 21.2604 -3.408V-5.824H27.5644V2H25.5644V-4.256H23.1004V-3.344C23.1004 -1.65867 22.8604 -0.373333 22.3804 0.512C21.9111 1.38667 21.1431 1.95733 20.0764 2.224ZM32.4233 2.16C31.858 2.16 31.3513 2.05333 30.9033 1.84C30.466 1.616 30.1193 1.31733 29.8633 0.944C29.618 0.570667 29.4953 0.149333 29.4953 -0.32C29.4953 -0.896 29.6446 -1.34933 29.9433 -1.68C30.242 -2.02133 30.7273 -2.26667 31.3993 -2.416C32.0713 -2.56533 32.9726 -2.64 34.1033 -2.64H34.6633V-2.976C34.6633 -3.50933 34.546 -3.89333 34.3113 -4.128C34.0766 -4.36267 33.682 -4.48 33.1273 -4.48C32.69 -4.48 32.242 -4.41067 31.7833 -4.272C31.3246 -4.144 30.8606 -3.94133 30.3913 -3.664L29.8153 -5.024C30.0926 -5.216 30.418 -5.38133 30.7913 -5.52C31.1753 -5.66933 31.5753 -5.78133 31.9913 -5.856C32.418 -5.94133 32.818 -5.984 33.1913 -5.984C34.3326 -5.984 35.1806 -5.71733 35.7353 -5.184C36.29 -4.66133 36.5673 -3.84533 36.5673 -2.736V2H34.6953V0.752C34.514 1.18933 34.226 1.536 33.8313 1.792C33.4366 2.03733 32.9673 2.16 32.4233 2.16ZM32.8393 0.784C33.362 0.784 33.794 0.602667 34.1353 0.24C34.4873 -0.122667 34.6633 -0.581333 34.6633 -1.136V-1.488H34.1193C33.1166 -1.488 32.418 -1.408 32.0233 -1.248C31.6393 -1.09867 31.4473 -0.821333 31.4473 -0.416C31.4473 -0.0640001 31.57 0.224 31.8153 0.448C32.0606 0.672 32.402 0.784 32.8393 0.784Z" fill="white"/>
<rect x="-708" y="-635" width="1440" height="900" fill="black" fill-opacity="0.15"/>
<g filter="url(#filter0_d_0_1)">
<rect x="-151" y="-27" width="327" height="86" rx="8" fill="white"/>
</g>
<g clip-path="url(#clip1_0_1)">
<path d="M16.0781 0.5H4.92188C2.2036 0.5 0 2.7036 0 5.42188V16.5781C0 19.2964 2.2036 21.5 4.92188 21.5H16.0781C18.7964 21.5 21 19.2964 21 16.5781V5.42188C21 2.7036 18.7964 0.5 16.0781 0.5Z" fill="url(#paint0_radial_0_1)"/>
<path d="M16.0781 0.5H4.92188C2.2036 0.5 0 2.7036 0 5.42188V16.5781C0 19.2964 2.2036 21.5 4.92188 21.5H16.0781C18.7964 21.5 21 19.2964 21 16.5781V5.42188C21 2.7036 18.7964 0.5 16.0781 0.5Z" fill="url(#paint1_radial_0_1)"/>
<path d="M10.6976 2.79688C8.41636 2.79688 8.13 2.80687 7.23406 2.84761C6.3398 2.8886 5.72937 3.03014 5.1953 3.23787C4.64274 3.4524 4.17411 3.73943 3.70724 4.20646C3.23994 4.67342 2.95292 5.14205 2.73771 5.69434C2.52939 6.22858 2.38768 6.83925 2.34744 7.73309C2.30737 8.6291 2.29688 8.91554 2.29688 11.1969C2.29688 13.4782 2.30696 13.7636 2.34761 14.6596C2.38877 15.5538 2.53031 16.1642 2.73788 16.6983C2.95258 17.2509 3.23961 17.7195 3.70665 18.1864C4.17344 18.6536 4.64207 18.9413 5.1942 19.1559C5.7287 19.3636 6.33921 19.5051 7.2333 19.5461C8.12933 19.5869 8.41544 19.5969 10.6966 19.5969C12.9781 19.5969 13.2636 19.5869 14.1595 19.5461C15.0538 19.5051 15.6649 19.3636 16.1994 19.1559C16.7517 18.9413 17.2196 18.6536 17.6863 18.1864C18.1536 17.7195 18.4406 17.2509 18.6559 16.6986C18.8623 16.1642 19.0041 15.5537 19.0461 14.6597C19.0864 13.7638 19.0969 13.4782 19.0969 11.1969C19.0969 8.91554 19.0864 8.62927 19.0461 7.73325C19.0041 6.839 18.8623 6.22866 18.6559 5.69459C18.4406 5.14205 18.1536 4.67342 17.6863 4.20646C17.2191 3.73926 16.7518 3.45224 16.1989 3.23795C15.6634 3.03014 15.0526 2.88852 14.1583 2.84761C13.2623 2.80687 12.9771 2.79688 10.695 2.79688H10.6976ZM9.94407 4.31062C10.1678 4.31029 10.4173 4.31062 10.6976 4.31062C12.9405 4.31062 13.2063 4.31869 14.092 4.35892C14.911 4.39639 15.3555 4.53322 15.6516 4.64822C16.0436 4.80042 16.3231 4.98245 16.6169 5.27653C16.9109 5.57053 17.0929 5.8505 17.2455 6.24252C17.3605 6.5382 17.4975 6.98272 17.5348 7.80171C17.575 8.68723 17.5838 8.95317 17.5838 11.1949C17.5838 13.4367 17.575 13.7027 17.5348 14.5882C17.4973 15.4072 17.3605 15.8517 17.2455 16.1474C17.0933 16.5395 16.9109 16.8186 16.6169 17.1124C16.3229 17.4064 16.0438 17.5884 15.6516 17.7407C15.3559 17.8562 14.911 17.9927 14.092 18.0301C13.2065 18.0704 12.9405 18.0791 10.6976 18.0791C8.45466 18.0791 8.1888 18.0704 7.30336 18.0301C6.48436 17.9923 6.03983 17.8555 5.74348 17.7405C5.35153 17.5882 5.07148 17.4063 4.77748 17.1123C4.48348 16.8183 4.30154 16.539 4.14891 16.1468C4.03391 15.851 3.89691 15.4065 3.85961 14.5875C3.81938 13.702 3.81131 13.436 3.81131 11.1928C3.81131 8.94973 3.81938 8.68513 3.85961 7.79961C3.89708 6.98062 4.03391 6.5361 4.14891 6.24C4.3012 5.84798 4.48348 5.56801 4.77756 5.27401C5.07156 4.98001 5.35153 4.79799 5.74356 4.64544C6.03966 4.52995 6.48436 4.39345 7.30336 4.35582C8.07826 4.32079 8.37856 4.31029 9.94407 4.30852V4.31062ZM15.1816 5.70535C14.6251 5.70535 14.1736 6.15642 14.1736 6.713C14.1736 7.26949 14.6251 7.72099 15.1816 7.72099C15.7381 7.72099 16.1896 7.26949 16.1896 6.713C16.1896 6.15651 15.7381 5.70535 15.1816 5.70535ZM10.6976 6.8831C8.31539 6.8831 6.38389 8.81458 6.38389 11.1969C6.38389 13.5792 8.31539 15.5097 10.6976 15.5097C13.08 15.5097 15.0108 13.5792 15.0108 11.1969C15.0108 8.81466 13.08 6.8831 10.6976 6.8831ZM10.6976 8.39685C12.244 8.39685 13.4977 9.65037 13.4977 11.1969C13.4977 12.7432 12.244 13.9969 10.6976 13.9969C9.15119 13.9969 7.89766 12.7432 7.89766 11.1969C7.89766 9.65037 9.15119 8.39685 10.6976 8.39685Z" fill="white"/>
</g>
</g>
<defs>
<filter id="filter0_d_0_1" x="-151" y="-27" width="355" height="110" filterUnits="userSpaceOnUse" color-interpolation-filters="sRGB">
<feFlood flood-opacity="0" result="BackgroundImageFix"/>
<feColorMatrix in="SourceAlpha" type="matrix" values="0 0 0 0 0 0 0 0 0 0 0 0 0 0 0 0 0 0 127 0" result="hardAlpha"/>
<feMorphology radius="4" operator="erode" in="SourceAlpha" result="effect1_dropShadow_0_1"/>
<feOffset dx="16" dy="12"/>
<feGaussianBlur stdDeviation="8"/>
<feComposite in2="hardAlpha" operator="out"/>
<feColorMatrix type="matrix" values="0 0 0 0 0 0 0 0 0 0 0 0 0 0 0 0 0 0 0.08 0"/>
<feBlend mode="normal" in2="BackgroundImageFix" result="effect1_dropShadow_0_1"/>
<feBlend mode="normal" in="SourceGraphic" in2="effect1_dropShadow_0_1" result="shape"/>
</filter>
<radialGradient id="paint0_radial_0_1" cx="0" cy="0" r="1" gradientUnits="userSpaceOnUse" gradientTransform="translate(5.57812 23.1174) rotate(-90) scale(20.8126 19.3573)">
<stop stop-color="#FFDD55"/>
<stop offset="0.1" stop-color="#FFDD55"/>
<stop offset="0.5" stop-color="#FF543E"/>
<stop offset="1" stop-color="#C837AB"/>
</radialGradient>
<radialGradient id="paint1_radial_0_1" cx="0" cy="0" r="1" gradientUnits="userSpaceOnUse" gradientTransform="translate(-3.51758 2.01274) rotate(78.681) scale(9.30333 38.3486)">
<stop stop-color="#3771C8"/>
<stop offset="0.128" stop-color="#3771C8"/>
<stop offset="1" stop-color="#6600FF" stop-opacity="0"/>
</radialGradient>
<clipPath id="clip0_0_1">
<rect width="1440" height="900" fill="white" transform="translate(-709 -635)"/>
</clipPath>
<clipPath id="clip1_0_1">
<rect width="21" height="21" fill="white" transform="translate(0 0.5)"/>
</clipPath>
</defs>
</svg>
