<svg width="13" height="14" viewBox="0 0 13 14" fill="none" xmlns="http://www.w3.org/2000/svg">
<path id="Ic_telegram_Passive" d="M11.8921 0.614777C11.8921 0.614777 13.0946 0.0520653 12.994 1.41855C12.9609 1.98126 12.6604 3.95093 12.4264 6.08107L11.6247 12.3916C11.6247 12.3916 11.5579 13.3161 10.9565 13.4769C10.3554 13.6374 9.45343 12.9142 9.28629 12.7534C9.15258 12.6327 6.78104 10.8238 5.94596 9.93982C5.71196 9.6984 5.44454 9.21628 5.97939 8.65357L9.48655 4.63399C9.88738 4.15188 10.2882 3.02645 8.61804 4.39293L3.9412 8.2112C3.9412 8.2112 3.40666 8.61346 2.40475 8.25169L0.233159 7.44755C0.233159 7.44755 -0.568496 6.84472 0.801127 6.2419C4.14177 4.35282 8.25064 2.42363 11.8915 0.614777H11.8921Z" fill="white"/>
</svg>
