<svg width="13" height="14" viewBox="0 0 13 14" fill="none" xmlns="http://www.w3.org/2000/svg">
<path id="Ic_whatsapp_Passive" fill-rule="evenodd" clip-rule="evenodd" d="M11.1059 2.38945C10.5062 1.78874 9.79279 1.31242 9.00687 0.988093C8.22095 0.663763 7.37818 0.497869 6.52739 0.500021C2.95978 0.500021 0.0555185 3.38978 0.0540765 6.94189C0.0540765 8.07712 0.351857 9.18509 0.917857 10.1625L0 13.5L3.43133 12.6037C4.38048 13.1179 5.44384 13.3876 6.5245 13.3881H6.52739C10.0943 13.3881 12.9985 10.4983 13 6.94619C13.0024 6.09977 12.8363 5.26127 12.5112 4.47914C12.1861 3.69701 11.7084 2.98676 11.1059 2.38945ZM6.52739 12.3009H6.52522C5.56159 12.301 4.6157 12.043 3.78679 11.5539L3.59067 11.4376L1.55452 11.9694L2.09744 9.99382L1.96982 9.79146C1.43107 8.93783 1.14587 7.94995 1.14714 6.94189C1.14858 3.98969 3.56183 1.5879 6.52955 1.5879C7.23633 1.58633 7.9364 1.7243 8.58925 1.99381C9.2421 2.26331 9.83475 2.65901 10.3329 3.158C10.8338 3.65461 11.2307 4.24508 11.5009 4.8953C11.7711 5.54551 11.9091 6.24258 11.9069 6.94619C11.9055 9.89838 9.49222 12.3009 6.52739 12.3009ZM9.47852 8.29025C9.31629 8.20916 8.52172 7.82022 8.37319 7.7664C8.22538 7.71258 8.11795 7.68603 8.0098 7.84677C7.90165 8.00752 7.59161 8.3699 7.49716 8.47754C7.4027 8.58518 7.30825 8.5981 7.14674 8.51773C6.98523 8.43736 6.46394 8.26729 5.84602 7.71904C5.3651 7.29207 5.04064 6.76536 4.94619 6.6039C4.85174 6.44244 4.9361 6.35561 5.01757 6.27524C5.09039 6.20348 5.17908 6.08723 5.25983 5.99322C5.34059 5.89922 5.36727 5.83248 5.42134 5.72484C5.47542 5.6172 5.44874 5.5232 5.40764 5.44283C5.36727 5.36174 5.04353 4.56951 4.9087 4.24731C4.77819 3.93516 4.6448 3.97678 4.5453 3.97247C4.44225 3.96828 4.33912 3.96636 4.23599 3.96673C4.15398 3.96881 4.07328 3.98773 3.99896 4.02231C3.92464 4.05688 3.8583 4.10637 3.8041 4.16766C3.65557 4.32912 3.2381 4.71805 3.2381 5.51028C3.2381 6.30251 3.8178 7.06818 3.89855 7.17582C3.9793 7.28346 5.0392 8.90882 6.6615 9.60632C7.04796 9.77209 7.34935 9.87111 7.58368 9.94574C7.97087 10.0685 8.32344 10.0505 8.60248 10.0096C8.91324 9.96369 9.55927 9.62067 9.6941 9.24465C9.82893 8.86863 9.82893 8.54643 9.78855 8.47898C9.74818 8.41152 9.6393 8.37062 9.47852 8.29025Z" fill="white"/>
</svg>
