<svg width="21" height="21" viewBox="0 0 21 21" fill="none" xmlns="http://www.w3.org/2000/svg">
<g id="Ic_instagram_Passive">
<path id="Ic_instagram_Passive_3" d="M16.0781 0H4.92188C2.2036 0 0 2.2036 0 4.92188V16.0781C0 18.7964 2.2036 21 4.92188 21H16.0781C18.7964 21 21 18.7964 21 16.0781V4.92188C21 2.2036 18.7964 0 16.0781 0Z" fill="url(#paint0_radial_54_2018)"/>
<path id="Ic_instagram_Passive_2" d="M16.0781 0H4.92188C2.2036 0 0 2.2036 0 4.92188V16.0781C0 18.7964 2.2036 21 4.92188 21H16.0781C18.7964 21 21 18.7964 21 16.0781V4.92188C21 2.2036 18.7964 0 16.0781 0Z" fill="url(#paint1_radial_54_2018)"/>
<path id="Ic_instagram_Passive_1" d="M10.6976 2.29688C8.41636 2.29688 8.13 2.30687 7.23406 2.34761C6.3398 2.3886 5.72937 2.53014 5.1953 2.73787C4.64274 2.9524 4.17411 3.23943 3.70724 3.70646C3.23994 4.17342 2.95292 4.64205 2.73771 5.19434C2.52939 5.72858 2.38768 6.33925 2.34744 7.23309C2.30737 8.1291 2.29688 8.41554 2.29688 10.6969C2.29688 12.9782 2.30696 13.2636 2.34761 14.1596C2.38877 15.0538 2.53031 15.6642 2.73788 16.1983C2.95258 16.7509 3.23961 17.2195 3.70665 17.6864C4.17344 18.1536 4.64207 18.4413 5.1942 18.6559C5.7287 18.8636 6.33921 19.0051 7.2333 19.0461C8.12933 19.0869 8.41544 19.0969 10.6966 19.0969C12.9781 19.0969 13.2636 19.0869 14.1595 19.0461C15.0538 19.0051 15.6649 18.8636 16.1994 18.6559C16.7517 18.4413 17.2196 18.1536 17.6863 17.6864C18.1536 17.2195 18.4406 16.7509 18.6559 16.1986C18.8623 15.6642 19.0041 15.0537 19.0461 14.1597C19.0864 13.2638 19.0969 12.9782 19.0969 10.6969C19.0969 8.41554 19.0864 8.12927 19.0461 7.23325C19.0041 6.339 18.8623 5.72866 18.6559 5.19459C18.4406 4.64205 18.1536 4.17342 17.6863 3.70646C17.2191 3.23926 16.7518 2.95224 16.1989 2.73795C15.6634 2.53014 15.0526 2.38852 14.1583 2.34761C13.2623 2.30687 12.9771 2.29688 10.695 2.29688H10.6976ZM9.94407 3.81062C10.1678 3.81029 10.4173 3.81062 10.6976 3.81062C12.9405 3.81062 13.2063 3.81869 14.092 3.85892C14.911 3.89639 15.3555 4.03322 15.6516 4.14822C16.0436 4.30042 16.3231 4.48245 16.6169 4.77653C16.9109 5.07053 17.0929 5.3505 17.2455 5.74252C17.3605 6.0382 17.4975 6.48272 17.5348 7.30171C17.575 8.18723 17.5838 8.45317 17.5838 10.6949C17.5838 12.9367 17.575 13.2027 17.5348 14.0882C17.4973 14.9072 17.3605 15.3517 17.2455 15.6474C17.0933 16.0395 16.9109 16.3186 16.6169 16.6124C16.3229 16.9064 16.0438 17.0884 15.6516 17.2407C15.3559 17.3562 14.911 17.4927 14.092 17.5301C13.2065 17.5704 12.9405 17.5791 10.6976 17.5791C8.45466 17.5791 8.1888 17.5704 7.30336 17.5301C6.48436 17.4923 6.03983 17.3555 5.74348 17.2405C5.35153 17.0882 5.07148 16.9063 4.77748 16.6123C4.48348 16.3183 4.30154 16.039 4.14891 15.6468C4.03391 15.351 3.89691 14.9065 3.85961 14.0875C3.81938 13.202 3.81131 12.936 3.81131 10.6928C3.81131 8.44973 3.81938 8.18513 3.85961 7.29961C3.89708 6.48062 4.03391 6.0361 4.14891 5.74C4.3012 5.34798 4.48348 5.06801 4.77756 4.77401C5.07156 4.48001 5.35153 4.29799 5.74356 4.14544C6.03966 4.02995 6.48436 3.89345 7.30336 3.85582C8.07826 3.82079 8.37856 3.81029 9.94407 3.80852V3.81062ZM15.1816 5.20535C14.6251 5.20535 14.1736 5.65642 14.1736 6.213C14.1736 6.76949 14.6251 7.22099 15.1816 7.22099C15.7381 7.22099 16.1896 6.76949 16.1896 6.213C16.1896 5.65651 15.7381 5.20535 15.1816 5.20535ZM10.6976 6.3831C8.31539 6.3831 6.38389 8.31458 6.38389 10.6969C6.38389 13.0792 8.31539 15.0097 10.6976 15.0097C13.08 15.0097 15.0108 13.0792 15.0108 10.6969C15.0108 8.31466 13.08 6.3831 10.6976 6.3831ZM10.6976 7.89685C12.244 7.89685 13.4977 9.15037 13.4977 10.6969C13.4977 12.2432 12.244 13.4969 10.6976 13.4969C9.15119 13.4969 7.89766 12.2432 7.89766 10.6969C7.89766 9.15037 9.15119 7.89685 10.6976 7.89685Z" fill="white"/>
</g>
<defs>
<radialGradient id="paint0_radial_54_2018" cx="0" cy="0" r="1" gradientUnits="userSpaceOnUse" gradientTransform="translate(5.57812 22.6174) rotate(-90) scale(20.8126 19.3573)">
<stop stop-color="#FFDD55"/>
<stop offset="0.1" stop-color="#FFDD55"/>
<stop offset="0.5" stop-color="#FF543E"/>
<stop offset="1" stop-color="#C837AB"/>
</radialGradient>
<radialGradient id="paint1_radial_54_2018" cx="0" cy="0" r="1" gradientUnits="userSpaceOnUse" gradientTransform="translate(-3.51758 1.51274) rotate(78.681) scale(9.30333 38.3486)">
<stop stop-color="#3771C8"/>
<stop offset="0.128" stop-color="#3771C8"/>
<stop offset="1" stop-color="#6600FF" stop-opacity="0"/>
</radialGradient>
</defs>
</svg>
