<svg width="21" height="21" viewBox="0 0 21 21" fill="none" xmlns="http://www.w3.org/2000/svg">
<rect width="21" height="21" rx="6" fill="#2AABEE"/>
<path d="M15.8921 4.11478C15.8921 4.11478 17.0946 3.55207 16.994 4.91855C16.9609 5.48126 16.6604 7.45093 16.4264 9.58107L15.6247 15.8916C15.6247 15.8916 15.5579 16.8161 14.9565 16.9769C14.3554 17.1374 13.4534 16.4142 13.2863 16.2534C13.1526 16.1327 10.781 14.3238 9.94596 13.4398C9.71196 13.1984 9.44454 12.7163 9.97939 12.1536L13.4866 8.13399C13.8874 7.65188 14.2882 6.52645 12.618 7.89293L7.9412 11.7112C7.9412 11.7112 7.40666 12.1135 6.40475 11.7517L4.23316 10.9475C4.23316 10.9475 3.4315 10.3447 4.80113 9.7419C8.14177 7.85282 12.2506 5.92363 15.8915 4.11478H15.8921Z" fill="white"/>
</svg>
