<svg width="21" height="21" viewBox="0 0 21 21" fill="none" xmlns="http://www.w3.org/2000/svg">
<rect width="21" height="21" rx="6" fill="#25D366"/>
<path fill-rule="evenodd" clip-rule="evenodd" d="M15.1059 5.88945C14.5062 5.28874 13.7928 4.81242 13.0069 4.48809C12.221 4.16376 11.3782 3.99787 10.5274 4.00002C6.95978 4.00002 4.05552 6.88978 4.05408 10.4419C4.05408 11.5771 4.35186 12.6851 4.91786 13.6625L4 17L7.43133 16.1037C8.38048 16.6179 9.44384 16.8876 10.5245 16.8881H10.5274C14.0943 16.8881 16.9985 13.9983 17 10.4462C17.0024 9.59977 16.8363 8.76127 16.5112 7.97914C16.1861 7.19701 15.7084 6.48676 15.1059 5.88945ZM10.5274 15.8009H10.5252C9.56159 15.801 8.6157 15.543 7.78679 15.0539L7.59067 14.9376L5.55452 15.4694L6.09744 13.4938L5.96982 13.2915C5.43107 12.4378 5.14587 11.45 5.14714 10.4419C5.14858 7.48969 7.56183 5.0879 10.5295 5.0879C11.2363 5.08633 11.9364 5.2243 12.5892 5.49381C13.2421 5.76331 13.8348 6.15901 14.3329 6.658C14.8338 7.15461 15.2307 7.74508 15.5009 8.3953C15.7711 9.04551 15.9091 9.74258 15.9069 10.4462C15.9055 13.3984 13.4922 15.8009 10.5274 15.8009ZM13.4785 11.7902C13.3163 11.7092 12.5217 11.3202 12.3732 11.2664C12.2254 11.2126 12.118 11.186 12.0098 11.3468C11.9016 11.5075 11.5916 11.8699 11.4972 11.9775C11.4027 12.0852 11.3082 12.0981 11.1467 12.0177C10.9852 11.9374 10.4639 11.7673 9.84602 11.219C9.3651 10.7921 9.04064 10.2654 8.94619 10.1039C8.85174 9.94244 8.9361 9.85561 9.01757 9.77524C9.09039 9.70348 9.17908 9.58723 9.25983 9.49322C9.34059 9.39922 9.36727 9.33248 9.42134 9.22484C9.47542 9.1172 9.44874 9.0232 9.40764 8.94283C9.36727 8.86174 9.04353 8.06951 8.9087 7.74731C8.77819 7.43516 8.6448 7.47678 8.5453 7.47247C8.44225 7.46828 8.33912 7.46636 8.23599 7.46673C8.15398 7.46881 8.07328 7.48773 7.99896 7.52231C7.92464 7.55688 7.8583 7.60637 7.8041 7.66766C7.65557 7.82912 7.2381 8.21805 7.2381 9.01028C7.2381 9.80251 7.8178 10.5682 7.89855 10.6758C7.9793 10.7835 9.0392 12.4088 10.6615 13.1063C11.048 13.2721 11.3493 13.3711 11.5837 13.4457C11.9709 13.5685 12.3234 13.5505 12.6025 13.5096C12.9132 13.4637 13.5593 13.1207 13.6941 12.7447C13.8289 12.3686 13.8289 12.0464 13.7886 11.979C13.7482 11.9115 13.6393 11.8706 13.4785 11.7902Z" fill="white"/>
</svg>
